<svg width="60" height="63" viewBox="0 0 60 63" fill="none" xmlns="http://www.w3.org/2000/svg">
<path fill-rule="evenodd" clip-rule="evenodd" d="M6.9233 36.9232C22.6924 39.6581 38.4617 39.5662 54.2308 36.9232V15.0001C54.2308 14.7503 54.15 14.5074 54.0002 14.3078L43.6156 0.46163C43.3976 0.171138 43.0556 0 42.6926 0H10.3848C9.46683 0 8.58622 0.364707 7.93711 1.01381C7.28801 1.6632 6.9233 2.54353 6.9233 3.46153V30.0001C6.9233 31.7137 6.52148 33.1662 6.52148 34.324C6.52148 35.9246 6.9233 36.9232 6.9233 36.9232Z" fill="#D8DFE3"/>
<path fill-rule="evenodd" clip-rule="evenodd" d="M0 33.9316V58.8458C0 59.7638 0.364707 60.6444 1.01381 61.2935C1.66292 61.9426 2.54353 62.3073 3.46153 62.3073H56.5385C57.4565 62.3073 58.3368 61.9426 58.9862 61.2935C59.6353 60.6444 60 59.7638 60 58.8458C60 54.4245 60 44.8058 60 40.3845C60 39.4665 59.6353 38.5859 58.9862 37.9368C58.3368 37.2877 57.4565 36.923 56.5385 36.923H4.61547C3.14335 36.923 0 33.9316 0 33.9316Z" fill="#1FB35B"/>
<path fill-rule="evenodd" clip-rule="evenodd" d="M3.46153 36.9231C2.40812 36.9231 1.63911 36.4958 1.07308 35.9696C0.540553 35.4745 0 34.6019 0 33.4615C0 32.7296 0.364707 31.6629 1.01381 31.0138C1.66292 30.3647 2.54353 30 3.46153 30H6.92307V36.9231C6.92307 36.9231 7.21965 36.9231 3.46153 36.9231Z" fill="#198043"/>
<path fill-rule="evenodd" clip-rule="evenodd" d="M42.6934 0V11.5385C42.6934 12.4565 43.0581 13.3371 43.7072 13.9863C44.3563 14.6354 45.2366 15.0001 46.1549 15.0001H54.2316C54.2316 14.7503 54.1508 14.5074 54.0009 14.3078L43.6163 0.46163C43.3984 0.171138 43.0564 0 42.6934 0Z" fill="#AFBDC7"/>
<path fill-rule="evenodd" clip-rule="evenodd" d="M17.3082 16.1536H32.3083C32.945 16.1536 33.462 15.6366 33.462 14.9996C33.462 14.3627 32.945 13.8457 32.3083 13.8457H17.3082C16.6713 13.8457 16.1543 14.3627 16.1543 14.9996C16.1543 15.6366 16.6713 16.1536 17.3082 16.1536Z" fill="#1FB35B"/>
<path fill-rule="evenodd" clip-rule="evenodd" d="M17.3082 23.0774H43.8466C44.4835 23.0774 45.0005 22.5604 45.0005 21.9235C45.0005 21.2865 44.4835 20.7695 43.8466 20.7695H17.3082C16.6713 20.7695 16.1543 21.2865 16.1543 21.9235C16.1543 22.5604 16.6713 23.0774 17.3082 23.0774Z" fill="#1FB35B"/>
<path fill-rule="evenodd" clip-rule="evenodd" d="M17.3082 29.9993H43.8466C44.4835 29.9993 45.0005 29.4823 45.0005 28.8453C45.0005 28.2084 44.4835 27.6914 43.8466 27.6914H17.3082C16.6713 27.6914 16.1543 28.2084 16.1543 28.8453C16.1543 29.4823 16.6713 29.9993 17.3082 29.9993Z" fill="#1FB35B"/>
<path fill-rule="evenodd" clip-rule="evenodd" d="M36.4284 44.2759L41.0439 55.8144C41.2189 56.2525 41.6434 56.5397 42.115 56.5397C42.5869 56.5397 43.0111 56.2525 43.1864 55.8144L47.8019 44.2759C48.0384 43.6847 47.7504 43.0126 47.1589 42.7761C46.5677 42.5396 45.8956 42.8276 45.6591 43.4188L42.115 52.2789L38.571 43.4188C38.3345 42.8276 37.6624 42.5396 37.0712 42.7761C36.4799 43.0126 36.1919 43.6847 36.4284 44.2759Z" fill="#D8DFE3"/>
<path fill-rule="evenodd" clip-rule="evenodd" d="M18.5437 42.6934H17.8844C14.6981 42.6934 12.1152 45.2762 12.1152 48.4625V50.7704C12.1152 53.9566 14.6981 56.5395 17.8844 56.5395H18.5437C20.6021 56.5395 22.4713 55.3388 23.327 53.4668C23.4464 53.2059 23.4699 53.1566 23.5466 52.9866C23.8487 52.3159 23.484 51.7036 23.0509 51.4859C22.3276 51.1223 21.6713 51.5253 21.4478 52.027C21.38 52.1793 21.2282 52.5075 21.2282 52.5075C20.7477 53.5579 19.699 54.2319 18.5437 54.2319H17.8844C15.9725 54.2319 14.4228 52.682 14.4228 50.7704V48.4625C14.4228 46.5509 15.9725 45.001 17.8844 45.001H18.5437C19.699 45.001 20.7477 45.675 21.2282 46.7254C21.2282 46.7254 21.3689 47.0405 21.4478 47.2058C21.7945 47.9325 22.6142 48.0358 23.1326 47.699C23.4968 47.462 23.8407 46.8896 23.5466 46.2463C23.327 45.7661 23.327 45.7661 23.327 45.7661C22.4713 43.8941 20.6021 42.6934 18.5437 42.6934Z" fill="#D8DFE3"/>
<path fill-rule="evenodd" clip-rule="evenodd" d="M25.3848 52.5083V53.0802C25.3848 53.9976 25.7492 54.8777 26.3977 55.5262C27.0466 56.1751 27.9264 56.5395 28.8438 56.5395H31.4447C32.3621 56.5395 33.2419 56.1751 33.8907 55.5262C34.5395 54.8777 34.904 53.9976 34.904 53.0802C34.904 52.9251 34.904 52.7711 34.904 52.621C34.904 51.2057 34.0422 49.9329 32.7279 49.4071L28.5323 47.7289C28.0249 47.5259 27.6924 47.0347 27.6924 46.4883V46.1549C27.6924 45.8489 27.8139 45.5554 28.0302 45.3391C28.2468 45.1225 28.54 45.001 28.846 45.001H31.4425C31.7485 45.001 32.042 45.1225 32.2583 45.3391C32.4745 45.5554 32.5961 45.8489 32.5961 46.1549V46.7248C32.5961 47.0505 32.7401 47.3451 32.8849 47.4946C33.1101 47.7502 33.4335 47.8857 33.75 47.8857C34.3116 47.8857 34.904 47.452 34.904 46.7248V46.1549C34.904 45.2369 34.5393 44.3563 33.8902 43.7072C33.2408 43.0581 32.3604 42.6934 31.4425 42.6934H28.8463C27.928 42.6934 27.0477 43.0581 26.3986 43.7072C25.7495 44.3563 25.3848 45.2369 25.3848 46.1549V46.4883C25.3848 47.9781 26.292 49.3182 27.6752 49.8715L31.8708 51.5499C32.3089 51.7249 32.5961 52.1494 32.5961 52.621V53.0802C32.5961 53.3856 32.4748 53.6786 32.2588 53.8946C32.0431 54.1106 31.7501 54.2319 31.4447 54.2319H28.8438C28.5384 54.2319 28.2457 54.1106 28.0297 53.8946C27.8137 53.6786 27.6924 53.3856 27.6924 53.0805C27.6924 53.0802 27.6924 53.0802 27.6924 52.5081C27.6924 51.7471 27.0721 51.3466 26.5586 51.3466C26.0718 51.3466 25.3848 51.7241 25.3848 52.5011V52.5083Z" fill="#D8DFE3"/>
</svg>
