<svg width="60" height="81" viewBox="0 0 60 81" fill="none" xmlns="http://www.w3.org/2000/svg">
<path fill-rule="evenodd" clip-rule="evenodd" d="M10.4443 0H37.2669L60 23.6953V69.7829C60 75.5564 55.3291 80.2273 49.5756 80.2273H10.4443C4.67089 80.2273 1.64986e-09 75.5564 1.64986e-09 69.7829V10.4443C-0.000101365 4.67089 4.67079 0 10.4443 0Z" fill="#E5252A"/>
<path opacity="0.302" fill-rule="evenodd" clip-rule="evenodd" d="M37.248 0V23.5149H60.0012L37.248 0Z" fill="white"/>
<path d="M11.6074 59.8593V45.2051H17.842C19.3856 45.2051 20.6085 45.6261 21.5306 46.4881C22.4528 47.33 22.9139 48.4727 22.9139 49.896C22.9139 51.3193 22.4528 52.462 21.5306 53.304C20.6085 54.166 19.3856 54.587 17.842 54.587H15.3562V59.8593H11.6074ZM15.3562 51.3996H17.421C17.9823 51.3996 18.4233 51.2793 18.7241 50.9987C19.0247 50.7381 19.1852 50.3772 19.1852 49.8961C19.1852 49.415 19.0248 49.0542 18.7241 48.7936C18.4234 48.5129 17.9824 48.3927 17.421 48.3927H15.3562V51.3996ZM24.4574 59.8593V45.2051H29.6495C30.6719 45.2051 31.6342 45.3454 32.5362 45.6461C33.4383 45.9468 34.2603 46.3679 34.9819 46.9492C35.7037 47.5105 36.285 48.2722 36.706 49.2345C37.1069 50.1968 37.3275 51.2994 37.3275 52.5422C37.3275 53.7651 37.107 54.8677 36.706 55.8299C36.285 56.7921 35.7037 57.5539 34.9819 58.1152C34.2602 58.6965 33.4383 59.1175 32.5362 59.4182C31.6342 59.7189 30.6719 59.8593 29.6495 59.8593H24.4574ZM28.126 56.6719H29.2085C29.7898 56.6719 30.3311 56.6118 30.8323 56.4714C31.3134 56.3311 31.7745 56.1105 32.2155 55.8099C32.6365 55.5092 32.9773 55.0881 33.2178 54.5269C33.4584 53.9656 33.5787 53.304 33.5787 52.5422C33.5787 51.7604 33.4584 51.0989 33.2178 50.5376C32.9773 49.9763 32.6365 49.5553 32.2155 49.2546C31.7745 48.9539 31.3135 48.7334 30.8323 48.5931C30.3311 48.4528 29.7898 48.3926 29.2085 48.3926H28.126V56.6719ZM39.2119 59.8593V45.2051H49.6362V48.3926H42.9606V50.738H48.293V53.9054H42.9606V59.8593H39.2119Z" fill="white"/>
</svg>
