<svg width="70" height="70" viewBox="0 0 70 70" fill="none" xmlns="http://www.w3.org/2000/svg">
<path d="M44.2477 19.2773C43.3723 19.2773 42.5329 18.9296 41.9139 18.3107C41.295 17.6917 40.9473 16.8523 40.9473 15.977V0H18.349C16.1114 0 13.9655 0.888887 12.3832 2.47111C10.801 4.05334 9.91211 6.19931 9.91211 8.43691V61.5631C9.91211 63.8007 10.801 65.9467 12.3832 67.5289C13.9655 69.1111 16.1114 70 18.349 70H51.651C53.8886 70 56.0345 69.1111 57.6168 67.5289C59.199 65.9467 60.0879 63.8007 60.0879 61.5631V19.2773H44.2477Z" fill="#252A3F"/>
<path d="M44.2477 19.2773H60.0879L40.9473 0V15.977C40.9473 16.8523 41.295 17.6917 41.9139 18.3107C42.5329 18.9296 43.3723 19.2773 44.2477 19.2773Z" fill="#999CA3"/>
<path d="M64.199 31.1719H5.80098C2.59719 31.1719 0 33.7691 0 36.9729V48.8865C0 52.0903 2.59719 54.6875 5.80098 54.6875H64.199C67.4028 54.6875 70 52.0903 70 48.8865V36.9729C70 33.7691 67.4028 31.1719 64.199 31.1719Z" fill="#999CA3"/>
<path d="M31.0037 20.7969H14.309C13.8816 20.7969 13.5352 21.1433 13.5352 21.5707C13.5352 21.9981 13.8816 22.3445 14.309 22.3445H31.0037C31.4311 22.3445 31.7775 21.9981 31.7775 21.5707C31.7775 21.1433 31.4311 20.7969 31.0037 20.7969Z" fill="#999CA3"/>
<path d="M38.191 23.5625H14.309C13.8816 23.5625 13.5352 23.909 13.5352 24.3363C13.5352 24.7637 13.8816 25.1102 14.309 25.1102H38.191C38.6184 25.1102 38.9648 24.7637 38.9648 24.3363C38.9648 23.909 38.6184 23.5625 38.191 23.5625Z" fill="#999CA3"/>
<path d="M38.191 26.3262H14.309C13.8816 26.3262 13.5352 26.6726 13.5352 27.1C13.5352 27.5274 13.8816 27.8738 14.309 27.8738H38.191C38.6184 27.8738 38.9648 27.5274 38.9648 27.1C38.9648 26.6726 38.6184 26.3262 38.191 26.3262Z" fill="#999CA3"/>
<path d="M43.0254 60.9141H26.9746C26.6877 60.9141 26.4551 61.1467 26.4551 61.4336V61.435C26.4551 61.7219 26.6877 61.9545 26.9746 61.9545H43.0254C43.3123 61.9545 43.5449 61.7219 43.5449 61.435V61.4336C43.5449 61.1467 43.3123 60.9141 43.0254 60.9141Z" fill="#999CA3"/>
<path d="M43.0254 62.7715H26.9746C26.6877 62.7715 26.4551 63.0041 26.4551 63.291V63.2924C26.4551 63.5793 26.6877 63.8119 26.9746 63.8119H43.0254C43.3123 63.8119 43.5449 63.5793 43.5449 63.2924V63.291C43.5449 63.0041 43.3123 62.7715 43.0254 62.7715Z" fill="#999CA3"/>
<path d="M22.5596 42.7328L19.5832 34.3164H22.4379L24.259 39.8781H24.3082L26.1785 34.3164H28.7379L25.7602 42.7328L28.8855 51.543H26.0309L24.0635 45.5383H24.0143L21.9949 51.543H19.4355L22.5596 42.7328Z" fill="#252A3F"/>
<path d="M30.1641 34.3164H34.0277L35.7504 46.6457H35.7996L37.5223 34.3164H41.3859V51.543H38.8279V38.5H38.7787L36.8086 51.543H34.5445L32.5758 38.5H32.5266V51.543H30.1641V34.3164Z" fill="#252A3F"/>
<path d="M43.4043 34.3164H46.1113V49.082H50.5656V51.543H43.4043V34.3164Z" fill="#252A3F"/>
</svg>
