<svg width="200" height="165" viewBox="0 0 200 165" fill="none" xmlns="http://www.w3.org/2000/svg">
<g filter="url(#filter0_d_1093_23520)">
<path d="M24.3577 26.8406C24.3577 25.4813 25.4596 24.3794 26.8189 24.3794H76.3172C79.942 24.3794 82.8805 27.3179 82.8805 30.9427V35.8652C82.8805 37.2245 81.7785 38.3264 80.4192 38.3264H26.8189C25.4596 38.3264 24.3577 37.2245 24.3577 35.8652V26.8406Z" fill="#292927"/>
</g>
<g filter="url(#filter1_d_1093_23520)">
<path d="M80.419 55.8284C81.7782 55.8284 82.8808 56.9301 82.8809 58.2893V65.3997C82.8809 67.8162 80.9215 69.7756 78.5049 69.7756H38.4268C38.3005 75.3113 37.9666 82.5898 41.7208 84.4055C45.9625 86.4565 77.2388 84.4055 81.1006 84.9524C84.9613 85.4994 83.9751 100.95 81.1006 100.95H41.7208C25.4277 100.95 23.6199 89.8113 24.3868 67.7239C24.3871 67.7237 24.3894 67.7226 24.3936 67.7209C24.3716 67.5885 24.3575 67.4525 24.3575 67.3137V58.2893C24.3576 56.9301 25.4602 55.8284 26.8194 55.8284H80.419Z" fill="#292927"/>
</g>
<g filter="url(#filter2_d_1093_23520)">
<path d="M94.8102 38.2227V26.623C94.8102 25.3082 95.876 24.2424 97.1907 24.2424H97.532H132.686H168.42C171.734 24.2424 173.842 27.7876 172.267 30.7029L148.793 74.1535C147.885 75.8329 146.127 76.8856 144.218 76.8856H133.813C132.99 76.8856 132.462 76.0109 132.845 75.2825L150.4 41.9033C150.863 41.0235 150.225 39.967 149.231 39.967H97.2586H96.5545C95.5911 39.967 94.8102 39.186 94.8102 38.2227Z" fill="#FFCC00"/>
</g>
<g filter="url(#filter3_dd_1093_23520)">
<path d="M175.745 87.8512V97.4478V97.5325C175.745 99.4205 174.214 100.951 172.326 100.951H137.869H102.134C98.8209 100.951 96.7098 97.4109 98.2848 94.4956L123.238 48.3078H136.741C137.564 48.3078 138.093 49.1824 137.709 49.9108L119.136 85.2263H121.324H172.463H173.12C174.569 85.2263 175.745 86.4015 175.745 87.8512Z" fill="#FFCC00"/>
</g>
<g filter="url(#filter4_dd_1093_23520)">
<path d="M34.6625 125.508V113.118H29.7762V110.238H43.0828V113.118H38.1964V125.508H34.6625ZM43.9555 125.508L50.7615 110.238H54.2518L61.0796 125.508H57.3712L51.7868 112.027H53.1829L47.5766 125.508H43.9555ZM47.3585 122.236L48.2965 119.553H56.1496L57.1094 122.236H47.3585ZM61.8543 125.508L68.4203 116.455V119.03L62.1379 110.238H66.1517L70.4927 116.368L68.813 116.39L73.0885 110.238H76.9278L70.689 118.877V116.346L77.2987 125.508H73.2194L68.7257 119.03H70.34L65.9117 125.508H61.8543Z" fill="#292927"/>
</g>
<g filter="url(#filter5_dd_1093_23520)">
<path d="M102.866 117.11H110.196V119.946H102.866V117.11ZM103.128 125.508H99.594V110.238H111.134V113.074H103.128V125.508ZM122.539 125.77C121.332 125.77 120.212 125.574 119.179 125.181C118.161 124.788 117.274 124.236 116.518 123.523C115.776 122.811 115.195 121.974 114.773 121.015C114.366 120.055 114.162 119.008 114.162 117.873C114.162 116.739 114.366 115.692 114.773 114.732C115.195 113.772 115.784 112.936 116.54 112.224C117.296 111.511 118.183 110.958 119.201 110.566C120.219 110.173 121.325 109.977 122.517 109.977C123.724 109.977 124.829 110.173 125.833 110.566C126.851 110.958 127.731 111.511 128.472 112.224C129.228 112.936 129.817 113.772 130.239 114.732C130.661 115.677 130.872 116.725 130.872 117.873C130.872 119.008 130.661 120.062 130.239 121.036C129.817 121.996 129.228 122.832 128.472 123.545C127.731 124.243 126.851 124.788 125.833 125.181C124.829 125.574 123.731 125.77 122.539 125.77ZM122.517 122.76C123.201 122.76 123.826 122.643 124.393 122.411C124.975 122.178 125.484 121.844 125.92 121.407C126.356 120.971 126.691 120.455 126.923 119.858C127.171 119.262 127.294 118.601 127.294 117.873C127.294 117.146 127.171 116.485 126.923 115.888C126.691 115.292 126.356 114.776 125.92 114.339C125.498 113.903 124.997 113.569 124.415 113.336C123.833 113.103 123.201 112.987 122.517 112.987C121.834 112.987 121.201 113.103 120.619 113.336C120.052 113.569 119.55 113.903 119.114 114.339C118.678 114.776 118.336 115.292 118.089 115.888C117.856 116.485 117.74 117.146 117.74 117.873C117.74 118.586 117.856 119.248 118.089 119.858C118.336 120.455 118.67 120.971 119.092 121.407C119.529 121.844 120.037 122.178 120.619 122.411C121.201 122.643 121.834 122.76 122.517 122.76ZM135.273 125.508V110.238H141.882C143.249 110.238 144.427 110.464 145.416 110.915C146.405 111.351 147.169 111.984 147.707 112.813C148.245 113.641 148.514 114.63 148.514 115.779C148.514 116.914 148.245 117.895 147.707 118.724C147.169 119.539 146.405 120.164 145.416 120.6C144.427 121.036 143.249 121.255 141.882 121.255H137.236L138.807 119.706V125.508H135.273ZM144.98 125.508L141.163 119.968H144.936L148.798 125.508H144.98ZM138.807 120.098L137.236 118.441H141.686C142.777 118.441 143.591 118.208 144.129 117.742C144.667 117.263 144.936 116.608 144.936 115.779C144.936 114.936 144.667 114.281 144.129 113.816C143.591 113.351 142.777 113.118 141.686 113.118H137.236L138.807 111.438V120.098ZM153.059 125.508V110.238H155.982L162.483 121.015H160.934L167.325 110.238H170.227L170.27 125.508H166.955L166.933 115.321H167.543L162.439 123.894H160.847L155.633 115.321H156.375V125.508H153.059Z" fill="#292927"/>
</g>
<path d="M35.4974 138.635C35.1561 138.635 34.8323 138.578 34.526 138.464C34.2241 138.346 33.99 138.195 33.8238 138.011L33.9747 137.762C34.1322 137.924 34.3466 138.062 34.6179 138.175C34.8936 138.285 35.1846 138.34 35.4908 138.34C35.7971 138.34 36.0465 138.3 36.2391 138.221C36.436 138.138 36.5804 138.029 36.6722 137.893C36.7685 137.758 36.8166 137.607 36.8166 137.44C36.8166 137.243 36.7641 137.086 36.6591 136.968C36.5541 136.85 36.4163 136.756 36.2456 136.686C36.075 136.616 35.889 136.556 35.6877 136.508C35.4865 136.46 35.283 136.41 35.0774 136.357C34.8717 136.301 34.6836 136.228 34.5129 136.141C34.3423 136.053 34.2044 135.935 34.0994 135.786C33.9988 135.633 33.9485 135.436 33.9485 135.196C33.9485 134.977 34.0053 134.776 34.1191 134.592C34.2329 134.408 34.4101 134.259 34.6507 134.146C34.8914 134.032 35.1999 133.975 35.5762 133.975C35.8299 133.975 36.0794 134.012 36.3244 134.086C36.5738 134.161 36.786 134.262 36.961 134.388L36.8363 134.658C36.6438 134.526 36.436 134.43 36.2128 134.369C35.994 134.303 35.7818 134.27 35.5762 134.27C35.283 134.27 35.0402 134.312 34.8476 134.395C34.6551 134.478 34.5129 134.59 34.421 134.73C34.3291 134.865 34.2832 135.018 34.2832 135.189C34.2832 135.386 34.3335 135.544 34.4342 135.662C34.5392 135.78 34.677 135.874 34.8476 135.944C35.0183 136.014 35.2064 136.073 35.4121 136.121C35.6177 136.169 35.8212 136.222 36.0225 136.279C36.2237 136.331 36.4097 136.401 36.5804 136.489C36.751 136.576 36.8888 136.694 36.9938 136.843C37.0989 136.992 37.1514 137.184 37.1514 137.421C37.1514 137.635 37.0923 137.836 36.9741 138.024C36.856 138.208 36.6744 138.357 36.4294 138.471C36.1887 138.58 35.8781 138.635 35.4974 138.635ZM40.3239 138.602V134.008H40.6061L42.7392 137.69H42.5882L44.7147 134.008H44.9904L44.997 138.602H44.6688L44.6622 134.513H44.7541L42.7392 137.992H42.5751L40.5536 134.513H40.6521V138.602H40.3239ZM47.8655 138.602L49.9789 134.008H50.3136L52.427 138.602H52.066L50.0708 134.218H50.2151L48.2265 138.602H47.8655ZM48.64 137.309L48.7515 137.027H51.5016L51.6131 137.309H48.64ZM55.2957 138.602V134.008H56.943C57.3281 134.008 57.6584 134.069 57.9341 134.192C58.2098 134.314 58.422 134.491 58.5707 134.723C58.7195 134.951 58.7939 135.229 58.7939 135.557C58.7939 135.876 58.7195 136.152 58.5707 136.384C58.422 136.611 58.2098 136.788 57.9341 136.915C57.6584 137.038 57.3281 137.099 56.943 137.099H55.4794L55.6304 136.942V138.602H55.2957ZM58.4854 138.602L57.2909 136.935H57.6716L58.8661 138.602H58.4854ZM55.6304 136.961L55.4794 136.804H56.943C57.4375 136.804 57.8116 136.694 58.0654 136.476C58.3235 136.257 58.4526 135.95 58.4526 135.557C58.4526 135.159 58.3235 134.852 58.0654 134.638C57.8116 134.419 57.4375 134.31 56.943 134.31H55.4794L55.6304 134.146V136.961ZM62.8695 138.602V134.31H61.2155V134.008H64.8581V134.31H63.2042V138.602H62.8695ZM72.3227 138.602V134.31H70.6687V134.008H74.3113V134.31H72.6574V138.602H72.3227ZM76.1774 138.602L78.2908 134.008H78.6255L80.7389 138.602H80.3779L78.3827 134.218H78.5271L76.5384 138.602H76.1774ZM76.9519 137.309L77.0635 137.027H79.8135L79.9251 137.309H76.9519ZM82.733 138.602L84.597 136.101V136.364L82.8577 134.008H83.2515L84.7873 136.082H84.6429L86.1788 134.008H86.5529L84.8267 136.338V136.115L86.6776 138.602H86.2838L84.6298 136.384H84.7677L83.1268 138.602H82.733ZM93.3684 138.602V134.008H93.7032V138.602H93.3684ZM97.3387 138.602V134.008H97.621L100.896 138.189H100.745V134.008H101.08V138.602H100.804L97.5225 134.421H97.6735V138.602H97.3387ZM105.948 138.602L103.9 134.008H104.267L106.223 138.399H106.02L107.982 134.008H108.33L106.282 138.602H105.948ZM113.016 138.635C112.675 138.635 112.358 138.578 112.065 138.464C111.776 138.346 111.522 138.182 111.303 137.972C111.089 137.758 110.923 137.51 110.805 137.23C110.686 136.946 110.627 136.637 110.627 136.305C110.627 135.972 110.686 135.666 110.805 135.386C110.923 135.102 111.089 134.854 111.303 134.644C111.522 134.43 111.776 134.266 112.065 134.152C112.358 134.034 112.675 133.975 113.016 133.975C113.358 133.975 113.673 134.034 113.961 134.152C114.255 134.266 114.508 134.428 114.723 134.638C114.937 134.848 115.103 135.095 115.222 135.379C115.344 135.66 115.405 135.968 115.405 136.305C115.405 136.642 115.344 136.952 115.222 137.237C115.103 137.517 114.937 137.762 114.723 137.972C114.508 138.182 114.255 138.346 113.961 138.464C113.673 138.578 113.358 138.635 113.016 138.635ZM113.016 138.326C113.31 138.326 113.581 138.276 113.83 138.175C114.08 138.075 114.296 137.933 114.48 137.749C114.664 137.565 114.806 137.351 114.907 137.106C115.012 136.861 115.064 136.594 115.064 136.305C115.064 136.012 115.012 135.745 114.907 135.504C114.806 135.259 114.664 135.045 114.48 134.861C114.296 134.677 114.08 134.535 113.83 134.434C113.581 134.334 113.31 134.283 113.016 134.283C112.723 134.283 112.452 134.334 112.203 134.434C111.953 134.535 111.734 134.677 111.546 134.861C111.362 135.045 111.218 135.259 111.113 135.504C111.012 135.745 110.962 136.012 110.962 136.305C110.962 136.594 111.012 136.861 111.113 137.106C111.218 137.351 111.362 137.565 111.546 137.749C111.734 137.933 111.953 138.075 112.203 138.175C112.452 138.276 112.723 138.326 113.016 138.326ZM118.601 138.602V134.008H118.936V138.602H118.601ZM124.514 138.635C124.173 138.635 123.856 138.578 123.562 138.464C123.274 138.346 123.022 138.182 122.808 137.972C122.593 137.762 122.427 137.517 122.309 137.237C122.191 136.952 122.132 136.642 122.132 136.305C122.132 135.968 122.191 135.66 122.309 135.379C122.427 135.095 122.593 134.848 122.808 134.638C123.026 134.428 123.28 134.266 123.569 134.152C123.858 134.034 124.173 133.975 124.514 133.975C124.838 133.975 125.14 134.027 125.42 134.132C125.704 134.237 125.947 134.397 126.148 134.612L125.938 134.828C125.741 134.636 125.523 134.498 125.282 134.415C125.046 134.327 124.794 134.283 124.527 134.283C124.234 134.283 123.961 134.334 123.707 134.434C123.457 134.535 123.239 134.677 123.05 134.861C122.867 135.045 122.722 135.259 122.617 135.504C122.517 135.749 122.466 136.016 122.466 136.305C122.466 136.594 122.517 136.861 122.617 137.106C122.722 137.351 122.867 137.565 123.05 137.749C123.239 137.933 123.457 138.075 123.707 138.175C123.961 138.276 124.234 138.326 124.527 138.326C124.794 138.326 125.046 138.285 125.282 138.202C125.523 138.114 125.741 137.972 125.938 137.775L126.148 137.992C125.947 138.206 125.704 138.368 125.42 138.477C125.14 138.582 124.838 138.635 124.514 138.635ZM129.599 136.121H132.087V136.416H129.599V136.121ZM129.639 138.3H132.474V138.602H129.304V134.008H132.376V134.31H129.639V138.3ZM139.745 136.121H142.232V136.416H139.745V136.121ZM139.784 138.3H142.62V138.602H139.449V134.008H142.521V134.31H139.784V138.3ZM145.875 138.602V134.008H146.157L149.432 138.189H149.281V134.008H149.616V138.602H149.34L146.058 134.421H146.209V138.602H145.875ZM154.134 138.602V134.31H152.48V134.008H156.123V134.31H154.469V138.602H154.134ZM158.988 138.602V134.008H160.635C161.02 134.008 161.35 134.069 161.626 134.192C161.902 134.314 162.114 134.491 162.263 134.723C162.411 134.951 162.486 135.229 162.486 135.557C162.486 135.876 162.411 136.152 162.263 136.384C162.114 136.611 161.902 136.788 161.626 136.915C161.35 137.038 161.02 137.099 160.635 137.099H159.171L159.322 136.942V138.602H158.988ZM162.177 138.602L160.983 136.935H161.364L162.558 138.602H162.177ZM159.322 136.961L159.171 136.804H160.635C161.129 136.804 161.504 136.694 161.757 136.476C162.015 136.257 162.145 135.95 162.145 135.557C162.145 135.159 162.015 134.852 161.757 134.638C161.504 134.419 161.129 134.31 160.635 134.31H159.171L159.322 134.146V136.961ZM166.765 138.602V136.935L166.844 137.152L164.914 134.008H165.282L167.034 136.863H166.85L168.603 134.008H168.95L167.021 137.152L167.1 136.935V138.602H166.765Z" fill="#292927"/>
<defs>
<filter id="filter0_d_1093_23520" x="19.9822" y="22.1916" width="67.2738" height="22.6981" filterUnits="userSpaceOnUse" color-interpolation-filters="sRGB">
<feFlood flood-opacity="0" result="BackgroundImageFix"/>
<feColorMatrix in="SourceAlpha" type="matrix" values="0 0 0 0 0 0 0 0 0 0 0 0 0 0 0 0 0 0 127 0" result="hardAlpha"/>
<feOffset dy="2.18777"/>
<feGaussianBlur stdDeviation="2.18777"/>
<feColorMatrix type="matrix" values="0 0 0 0 0 0 0 0 0 0 0 0 0 0 0 0 0 0 0.15 0"/>
<feBlend mode="normal" in2="BackgroundImageFix" result="effect1_dropShadow_1093_23520"/>
<feBlend mode="normal" in="SourceGraphic" in2="effect1_dropShadow_1093_23520" result="shape"/>
</filter>
<filter id="filter1_d_1093_23520" x="19.8669" y="53.6406" width="68.1484" height="53.8731" filterUnits="userSpaceOnUse" color-interpolation-filters="sRGB">
<feFlood flood-opacity="0" result="BackgroundImageFix"/>
<feColorMatrix in="SourceAlpha" type="matrix" values="0 0 0 0 0 0 0 0 0 0 0 0 0 0 0 0 0 0 127 0" result="hardAlpha"/>
<feOffset dy="2.18777"/>
<feGaussianBlur stdDeviation="2.18777"/>
<feColorMatrix type="matrix" values="0 0 0 0 0 0 0 0 0 0 0 0 0 0 0 0 0 0 0.15 0"/>
<feBlend mode="normal" in2="BackgroundImageFix" result="effect1_dropShadow_1093_23520"/>
<feBlend mode="normal" in="SourceGraphic" in2="effect1_dropShadow_1093_23520" result="shape"/>
</filter>
<filter id="filter2_d_1093_23520" x="81.6835" y="15.4914" width="104.243" height="78.8963" filterUnits="userSpaceOnUse" color-interpolation-filters="sRGB">
<feFlood flood-opacity="0" result="BackgroundImageFix"/>
<feColorMatrix in="SourceAlpha" type="matrix" values="0 0 0 0 0 0 0 0 0 0 0 0 0 0 0 0 0 0 127 0" result="hardAlpha"/>
<feOffset dy="4.37553"/>
<feGaussianBlur stdDeviation="6.5633"/>
<feColorMatrix type="matrix" values="0 0 0 0 0 0 0 0 0 0 0 0 0 0 0 0 0 0 0.175 0"/>
<feBlend mode="normal" in2="BackgroundImageFix" result="effect1_dropShadow_1093_23520"/>
<feBlend mode="normal" in="SourceGraphic" in2="effect1_dropShadow_1093_23520" result="shape"/>
</filter>
<filter id="filter3_dd_1093_23520" x="96.112" y="47.7609" width="81.2735" height="55.9247" filterUnits="userSpaceOnUse" color-interpolation-filters="sRGB">
<feFlood flood-opacity="0" result="BackgroundImageFix"/>
<feColorMatrix in="SourceAlpha" type="matrix" values="0 0 0 0 0 0 0 0 0 0 0 0 0 0 0 0 0 0 127 0" result="hardAlpha"/>
<feMorphology radius="0.546942" operator="erode" in="SourceAlpha" result="effect1_dropShadow_1093_23520"/>
<feOffset dy="0.546942"/>
<feGaussianBlur stdDeviation="0.546942"/>
<feColorMatrix type="matrix" values="0 0 0 0 0.0627451 0 0 0 0 0.0941176 0 0 0 0 0.156863 0 0 0 0.06 0"/>
<feBlend mode="normal" in2="BackgroundImageFix" result="effect1_dropShadow_1093_23520"/>
<feColorMatrix in="SourceAlpha" type="matrix" values="0 0 0 0 0 0 0 0 0 0 0 0 0 0 0 0 0 0 127 0" result="hardAlpha"/>
<feMorphology radius="0.546942" operator="erode" in="SourceAlpha" result="effect2_dropShadow_1093_23520"/>
<feOffset dy="1.09388"/>
<feGaussianBlur stdDeviation="1.09388"/>
<feColorMatrix type="matrix" values="0 0 0 0 0.0627451 0 0 0 0 0.0941176 0 0 0 0 0.156863 0 0 0 0.1 0"/>
<feBlend mode="normal" in2="effect1_dropShadow_1093_23520" result="effect2_dropShadow_1093_23520"/>
<feBlend mode="normal" in="SourceGraphic" in2="effect2_dropShadow_1093_23520" result="shape"/>
</filter>
<filter id="filter4_dd_1093_23520" x="26.4945" y="110.239" width="54.0858" height="21.8331" filterUnits="userSpaceOnUse" color-interpolation-filters="sRGB">
<feFlood flood-opacity="0" result="BackgroundImageFix"/>
<feColorMatrix in="SourceAlpha" type="matrix" values="0 0 0 0 0 0 0 0 0 0 0 0 0 0 0 0 0 0 127 0" result="hardAlpha"/>
<feMorphology radius="0.546942" operator="erode" in="SourceAlpha" result="effect1_dropShadow_1093_23520"/>
<feOffset dy="1.09388"/>
<feGaussianBlur stdDeviation="0.820413"/>
<feColorMatrix type="matrix" values="0 0 0 0 0.0627451 0 0 0 0 0.0941176 0 0 0 0 0.156863 0 0 0 0.03 0"/>
<feBlend mode="normal" in2="BackgroundImageFix" result="effect1_dropShadow_1093_23520"/>
<feColorMatrix in="SourceAlpha" type="matrix" values="0 0 0 0 0 0 0 0 0 0 0 0 0 0 0 0 0 0 127 0" result="hardAlpha"/>
<feMorphology radius="1.09388" operator="erode" in="SourceAlpha" result="effect2_dropShadow_1093_23520"/>
<feOffset dy="3.28165"/>
<feGaussianBlur stdDeviation="2.18777"/>
<feColorMatrix type="matrix" values="0 0 0 0 0.0627451 0 0 0 0 0.0941176 0 0 0 0 0.156863 0 0 0 0.08 0"/>
<feBlend mode="normal" in2="effect1_dropShadow_1093_23520" result="effect2_dropShadow_1093_23520"/>
<feBlend mode="normal" in="SourceGraphic" in2="effect2_dropShadow_1093_23520" result="shape"/>
</filter>
<filter id="filter5_dd_1093_23520" x="98.7736" y="109.43" width="72.3171" height="17.4343" filterUnits="userSpaceOnUse" color-interpolation-filters="sRGB">
<feFlood flood-opacity="0" result="BackgroundImageFix"/>
<feColorMatrix in="SourceAlpha" type="matrix" values="0 0 0 0 0 0 0 0 0 0 0 0 0 0 0 0 0 0 127 0" result="hardAlpha"/>
<feOffset dy="0.273471"/>
<feGaussianBlur stdDeviation="0.273471"/>
<feColorMatrix type="matrix" values="0 0 0 0 0.0627451 0 0 0 0 0.0941176 0 0 0 0 0.156863 0 0 0 0.06 0"/>
<feBlend mode="normal" in2="BackgroundImageFix" result="effect1_dropShadow_1093_23520"/>
<feColorMatrix in="SourceAlpha" type="matrix" values="0 0 0 0 0 0 0 0 0 0 0 0 0 0 0 0 0 0 127 0" result="hardAlpha"/>
<feOffset dy="0.273471"/>
<feGaussianBlur stdDeviation="0.410206"/>
<feColorMatrix type="matrix" values="0 0 0 0 0.0627451 0 0 0 0 0.0941176 0 0 0 0 0.156863 0 0 0 0.1 0"/>
<feBlend mode="normal" in2="effect1_dropShadow_1093_23520" result="effect2_dropShadow_1093_23520"/>
<feBlend mode="normal" in="SourceGraphic" in2="effect2_dropShadow_1093_23520" result="shape"/>
</filter>
</defs>
</svg>
